<?xml version="1.0" encoding="UTF-8" standalone="no"?>
<svg
   id="Layer_1"
   data-name="Layer 1"
   viewBox="0 0 122.88 122.88"
   version="1.1"
   sodipodi:docname="compass-icon2.svg"
   inkscape:version="1.4.2 (f4327f4, 2025-05-13)"
   xmlns:inkscape="http://www.inkscape.org/namespaces/inkscape"
   xmlns:sodipodi="http://sodipodi.sourceforge.net/DTD/sodipodi-0.dtd"
   xmlns="http://www.w3.org/2000/svg"
   xmlns:svg="http://www.w3.org/2000/svg"
   xmlns:rdf="http://www.w3.org/1999/02/22-rdf-syntax-ns#"
   xmlns:cc="http://creativecommons.org/ns#"
   xmlns:dc="http://purl.org/dc/elements/1.1/">
  <defs
     id="defs1" />
  <sodipodi:namedview
     id="namedview1"
     pagecolor="#ffffff"
     bordercolor="#000000"
     borderopacity="0.25"
     inkscape:showpageshadow="2"
     inkscape:pageopacity="0.0"
     inkscape:pagecheckerboard="0"
     inkscape:deskcolor="#d1d1d1"
     inkscape:zoom="8"
     inkscape:cx="44.375"
     inkscape:cy="61.3125"
     inkscape:window-width="2880"
     inkscape:window-height="1694"
     inkscape:window-x="-11"
     inkscape:window-y="-11"
     inkscape:window-maximized="1"
     inkscape:current-layer="Layer_1" />
  <title
     id="title1">compass</title>
  <path
     d="m 61.44,0 c 29.322736,-0.00838175 54.56799,20.699731 60.29256,49.454363 5.7245,28.754266 -9.66664,57.542607 -36.755052,68.767087 C 57.8891,129.44593 26.647043,119.98073 10.35625,95.604769 -5.9347506,71.228492 -2.7348861,38.733727 18,18 29.505955,6.4556973 45.141,-0.02291266 61.44,0 Z M 77,57.42 69.77,61.53 c -0.02792,0.530665 -0.11172,1.056907 -0.25,1.57 -1.15596,4.23303 -5.505965,6.744879 -9.75,5.63 -0.546332,-0.148184 -1.075829,-0.35261 -1.58,-0.61 l -7.66,4.36 30.9,22.75 z m -30.45,8.46 7.37,-4.19 c -0.0758,-0.903798 0.0054,-1.813896 0.24,-2.69 1.15596,-4.23303 5.505965,-6.744879 9.75,-5.63 0.912328,0.251342 1.774819,0.65722 2.55,1.2 L 73,50.82 42.14,28.07 Z M 95.36,27.52 C 79.192707,11.296487 53.814795,8.7557066 34.754961,21.450982 15.69537,34.146095 8.2661444,58.538706 17.00407,79.709452 25.741996,100.8802 48.213087,112.93188 70.678341,108.4882 93.143881,104.04446 109.34195,84.343786 109.36,61.44 c 0.0298,-12.718542 -5.00821,-24.925006 -14,-33.92 z"
     id="path1"
     sodipodi:nodetypes="cssscccccccccccccccccccssscc"
     style="fill:#ff7f2a" />
  <metadata
     id="metadata14">
    <rdf:RDF>
      <cc:Work
         rdf:about="">
        <dc:title>compass</dc:title>
      </cc:Work>
    </rdf:RDF>
  </metadata>
</svg>
